<?xml version="1.0" standalone="no"?><!DOCTYPE svg PUBLIC "-//W3C//DTD SVG 1.1//EN" "http://www.w3.org/Graphics/SVG/1.1/DTD/svg11.dtd"><svg class="icon" width="200px" height="200.00px" viewBox="0 0 1024 1024" version="1.1" xmlns="http://www.w3.org/2000/svg"><path fill="#00a76f" d="M896 917.333333H106.666667V128a21.333333 21.333333 0 0 1 42.666666 0v746.666667h746.666667a21.333333 21.333333 0 0 1 0 42.666666z"  /><path fill="#00a76f" d="M224.682667 779.797333a21.333333 21.333333 0 0 1-20.138667-28.394666 349.098667 349.098667 0 0 1 105.813333-157.184c48.298667-38.613333 99.989333-51.093333 145.664-35.072a21.333333 21.333333 0 1 1-14.122666 40.256c-31.189333-10.965333-68.48-0.96-104.917334 28.138666a306.709333 306.709333 0 0 0-92.181333 137.962667 21.333333 21.333333 0 0 1-20.117333 14.293333z"  /><path fill="#00a76f" d="M481.642667 606.869333a121.792 121.792 0 0 1-40.533334-6.848 21.333333 21.333333 0 0 1 14.122667-40.277333c66.88 23.466667 157.312-52.544 197.12-166.101333a21.333333 21.333333 0 1 1 40.234667 14.101333c-41.962667 119.936-129.109333 199.125333-210.944 199.125333z"  /><path fill="#00a76f" d="M671.722667 422.656a20.928 20.928 0 0 1-7.061334-1.216 21.333333 21.333333 0 0 1-13.077333-27.178667c44.8-128 110.528-180.394667 242.346667-193.365333a21.333333 21.333333 0 1 1 4.16 42.453333c-114.922667 11.328-166.976 52.949333-206.250667 165.013334a21.333333 21.333333 0 0 1-20.117333 14.293333z"  /></svg>