<?xml version="1.0" standalone="no"?><!DOCTYPE svg PUBLIC "-//W3C//DTD SVG 1.1//EN" "http://www.w3.org/Graphics/SVG/1.1/DTD/svg11.dtd"><svg class="icon" width="200px" height="180.12px" viewBox="0 0 1137 1024" version="1.1" xmlns="http://www.w3.org/2000/svg"><path fill="#00a76f" d="M269.880889 846.762667a26.965333 26.965333 0 0 1-22.129778-7.452445 36.977778 36.977778 0 0 1-7.395555-52.081778l147.655111-223.175111a55.779556 55.779556 0 0 1 29.525333-14.876444h191.943111l66.446222-267.804445a39.424 39.424 0 0 1 14.762667-22.328888l221.468444-148.792889a44.430222 44.430222 0 0 1 59.050667 7.452444 36.977778 36.977778 0 0 1-7.395555 52.081778l-214.101334 141.340444-73.955555 282.709334a33.848889 33.848889 0 0 1-36.977778 29.752889h-199.082667l-140.259555 208.298666a38.257778 38.257778 0 0 1-29.525334 14.876445zM1015.466667 995.555556H122.311111A35.015111 35.015111 0 0 1 85.333333 958.350222V65.649778A35.015111 35.015111 0 0 1 122.311111 28.444444a35.015111 35.015111 0 0 1 36.977778 37.205334v855.523555h856.177778a35.015111 35.015111 0 0 1 36.977777 37.176889A39.822222 39.822222 0 0 1 1015.466667 995.555556z m0 0"  /></svg>