<?xml version="1.0" standalone="no"?><!DOCTYPE svg PUBLIC "-//W3C//DTD SVG 1.1//EN" "http://www.w3.org/Graphics/SVG/1.1/DTD/svg11.dtd"><svg class="icon" width="200px" height="200.00px" viewBox="0 0 1024 1024" version="1.1" xmlns="http://www.w3.org/2000/svg"><path fill="#91e2af" d="M974.857143 168.114286l-227.657143 27.428571c-7.542857 0.914286-10.742857 10.171429-5.371429 15.542857l67.771429 67.771429-258.285714 258.285714-116.342857-116.228571c-7.2-7.2-18.742857-7.085714-25.828572 0L41.485714 788.685714a9.177143 9.177143 0 0 0 0 12.914286l51.428572 51.657143c3.542857 3.542857 9.371429 3.542857 12.914285 0L422.057143 537.142857 538.285714 653.371429c7.2 7.085714 18.742857 7.085714 25.828572 0L874.285714 343.428571l67.771429 67.771429a9.154286 9.154286 0 0 0 15.542857-5.371429l27.428571-227.657142c0.8-5.828571-4.228571-10.857143-10.171428-10.057143z" /></svg>