<?xml version="1.0" standalone="no"?><!DOCTYPE svg PUBLIC "-//W3C//DTD SVG 1.1//EN" "http://www.w3.org/Graphics/SVG/1.1/DTD/svg11.dtd"><svg class="icon" width="200px" height="200.00px" viewBox="0 0 1024 1024" version="1.1" xmlns="http://www.w3.org/2000/svg"><path d="M985.742 749.896c0 130.902-106.178 237.004-237.17 237.004H274.298c-130.954 0-237.092-106.102-237.092-237.004V276.018c0-130.902 106.138-236.966 237.092-236.966h474.274c130.992 0 237.17 106.064 237.17 236.966v473.878z" fill="#FF312E" /><path d="M801.952 389.486s-5.792-42.618-23.544-61.324c-22.54-24.568-47.82-24.76-59.358-26.148-83.02-6.248-207.416-6.248-207.416-6.248h-0.27s-124.47 0-207.422 6.248c-11.58 1.388-36.822 1.582-59.4 26.148-17.752 18.706-23.544 61.324-23.544 61.324s-5.944 49.984-5.944 99.97v46.812c0 50.06 5.944 100.044 5.944 100.044s5.792 42.542 23.544 61.286c22.578 24.608 52.22 23.796 65.382 26.382 47.434 4.744 201.556 6.208 201.556 6.208s124.55-0.23 207.57-6.44c11.538-1.428 36.818-1.542 59.358-26.15 17.754-18.744 23.544-61.286 23.544-61.286s5.944-49.984 5.944-100.044v-46.812c-0.002-49.986-5.944-99.97-5.944-99.97zM450.304 593.118l-0.04-173.546 160.172 87.088-160.132 86.458z" fill="#FFFFFF" /><path d="M511.632 295.766s124.396 0 207.416 6.248c11.538 1.388 36.818 1.582 59.358 26.148 17.754 18.706 23.544 61.324 23.544 61.324s5.944 49.984 5.944 99.97v46.812c0 50.06-5.944 100.044-5.944 100.044s-5.792 42.542-23.544 61.286c-22.54 24.608-47.82 24.722-59.358 26.15-83.02 6.208-207.57 6.44-207.57 6.44s-154.124-1.462-201.556-6.208c-13.162-2.586-42.804-1.776-65.382-26.382-17.752-18.744-23.544-61.286-23.544-61.286s-5.944-49.984-5.944-100.044v-46.812c0-49.986 5.944-99.97 5.944-99.97s5.792-42.618 23.544-61.324c22.578-24.568 47.82-24.76 59.4-26.148 82.952-6.248 207.422-6.248 207.422-6.248h0.27m-61.328 297.352l160.132-86.458-160.172-87.088 0.04 173.546m61.328-317.106h-0.27c-1.252 0-126.17 0.072-208.906 6.304-0.29 0.022-0.58 0.05-0.868 0.084-0.964 0.116-2.038 0.22-3.204 0.336-13.884 1.376-42.758 4.244-68.292 31.954-21.424 22.712-27.992 67.136-28.67 72.136l-0.042 0.328c-0.248 2.088-6.082 51.728-6.082 102.302v46.812c0 50.648 5.834 100.29 6.082 102.376l0.042 0.332c0.68 4.992 7.248 49.342 28.662 72.084 23.586 25.626 53.29 29.344 69.256 31.342 2.666 0.334 5.184 0.65 6.774 0.96 0.61 0.122 1.224 0.21 1.842 0.274 47.772 4.778 197.006 6.244 203.334 6.304h0.224c1.252-0.002 126.226-0.302 209.006-6.494 0.318-0.024 0.636-0.054 0.954-0.096 1-0.124 2.118-0.232 3.336-0.356 13.858-1.396 42.668-4.298 68.058-31.942 21.41-22.746 27.976-67.088 28.656-72.078 0.014-0.11 0.03-0.22 0.042-0.332 0.248-2.088 6.082-51.728 6.082-102.376v-46.812c0-50.574-5.834-100.214-6.082-102.302a9.188 9.188 0 0 0-0.042-0.328c-0.68-5-7.246-49.42-28.67-72.134-25.49-27.704-54.36-30.574-68.244-31.954-1.168-0.116-2.24-0.222-3.204-0.336a18.54 18.54 0 0 0-0.876-0.086c-82.802-6.23-207.646-6.302-208.898-6.302z m-41.582 283.994l-0.024-107.206 98.944 53.798-98.92 53.408z" fill="#801917" /><path d="M728.078 956.122H294.83c-124.896 0-226.506-101.636-226.506-226.566V296.358c0-124.908 101.61-226.526 226.506-226.526h433.248c124.918 0 226.544 101.62 226.544 226.526v433.198c0.002 124.928-101.626 226.566-226.544 226.566zM294.83 89.636c-113.976 0-206.702 92.734-206.702 206.72v433.198c0 114.008 92.726 206.762 206.702 206.762h433.248c113.996 0 206.74-92.754 206.74-206.762V296.358c0-113.986-92.744-206.72-206.74-206.72H294.83z" fill="#801917" /></svg>